<?xml version="1.0" encoding="UTF-8" standalone="no"?>
<!-- Generator: Adobe Illustrator 16.0.0, SVG Export Plug-In . SVG Version: 6.00 Build 0)  -->

<svg
   xmlns:dc="http://purl.org/dc/elements/1.1/"
   xmlns:cc="http://creativecommons.org/ns#"
   xmlns:rdf="http://www.w3.org/1999/02/22-rdf-syntax-ns#"
   xmlns:svg="http://www.w3.org/2000/svg"
   xmlns="http://www.w3.org/2000/svg"
   xmlns:sodipodi="http://sodipodi.sourceforge.net/DTD/sodipodi-0.dtd"
   xmlns:inkscape="http://www.inkscape.org/namespaces/inkscape"
   version="1.1"
   id="Capa_1"
   x="0px"
   y="0px"
   width="537.794px"
   height="537.795px"
   viewBox="0 0 537.794 537.795"
   style="enable-background:new 0 0 537.794 537.795;"
   xml:space="preserve"
   inkscape:version="0.91 r13725"
   sodipodi:docname="download168.svg"><metadata
     id="metadata45"><rdf:RDF><cc:Work
         rdf:about=""><dc:format>image/svg+xml</dc:format><dc:type
           rdf:resource="http://purl.org/dc/dcmitype/StillImage" /></cc:Work></rdf:RDF></metadata><defs
     id="defs43" /><sodipodi:namedview
     pagecolor="#ffffff"
     bordercolor="#666666"
     borderopacity="1"
     objecttolerance="10"
     gridtolerance="10"
     guidetolerance="10"
     inkscape:pageopacity="0"
     inkscape:pageshadow="2"
     inkscape:window-width="1920"
     inkscape:window-height="1017"
     id="namedview41"
     showgrid="false"
     inkscape:zoom="0.43882894"
     inkscape:cx="268.897"
     inkscape:cy="268.89749"
     inkscape:window-x="1358"
     inkscape:window-y="-8"
     inkscape:window-maximized="1"
     inkscape:current-layer="Capa_1" /><g
     id="g3"
     style="fill:#ffffff"><g
       id="g5"
       style="fill:#ffffff"><path
         d="M463.091,466.114H74.854c-11.857,0-21.497,9.716-21.497,21.497v28.688c0,11.857,9.716,21.496,21.497,21.496h388.084    c11.857,0,21.496-9.716,21.496-21.496v-28.688C484.665,475.677,474.949,466.114,463.091,466.114z"
         id="path7"
         style="fill:#ffffff" /><path
         d="M253.94,427.635c4.208,4.208,9.716,6.35,15.147,6.35c5.508,0,11.016-2.142,15.147-6.35l147.033-147.033    c8.339-8.338,8.339-21.955,0-30.447l-20.349-20.349c-8.339-8.339-21.956-8.339-30.447,0l-75.582,75.659V21.497    C304.889,9.639,295.173,0,283.393,0h-28.688c-11.857,0-21.497,9.562-21.497,21.497v284.044l-75.658-75.659    c-8.339-8.338-22.032-8.338-30.447,0l-20.349,20.349c-8.338,8.338-8.338,22.032,0,30.447L253.94,427.635z"
         id="path9"
         style="fill:#ffffff" /></g></g><g
     id="g11" /><g
     id="g13" /><g
     id="g15" /><g
     id="g17" /><g
     id="g19" /><g
     id="g21" /><g
     id="g23" /><g
     id="g25" /><g
     id="g27" /><g
     id="g29" /><g
     id="g31" /><g
     id="g33" /><g
     id="g35" /><g
     id="g37" /><g
     id="g39" /></svg>
